<svg xmlns="http://www.w3.org/2000/svg" viewBox="0 0 24 24" width="24" height="24" fill="currentColor"><rect x="4" y="2" width="12" height="2"></rect><rect x="4" y="4" width="2" height="2"></rect><rect x="14" y="4" width="4" height="2"></rect><rect x="4" y="6" width="2" height="2"></rect><rect x="14" y="6" width="6" height="2"></rect><rect x="4" y="8" width="2" height="2"></rect><rect x="18" y="8" width="2" height="2"></rect><rect x="4" y="10" width="2" height="2"></rect><rect x="18" y="10" width="2" height="2"></rect><rect x="4" y="12" width="2" height="2"></rect><rect x="18" y="12" width="2" height="2"></rect><rect x="4" y="14" width="2" height="2"></rect><rect x="18" y="14" width="2" height="2"></rect><rect x="4" y="16" width="2" height="2"></rect><rect x="18" y="16" width="2" height="2"></rect><rect x="4" y="18" width="16" height="2"></rect></svg>