<svg xmlns="http://www.w3.org/2000/svg" viewBox="0 0 24 24" width="24" height="24" fill="currentColor"><rect x="8" y="2" width="8" height="2"></rect><rect x="6" y="4" width="2" height="2"></rect><rect x="16" y="4" width="2" height="2"></rect><rect x="4" y="6" width="2" height="2"></rect><rect x="18" y="6" width="2" height="2"></rect><rect x="2" y="8" width="20" height="2"></rect><rect x="2" y="10" width="2" height="2"></rect><rect x="8" y="10" width="8" height="2"></rect><rect x="20" y="10" width="2" height="2"></rect><rect x="2" y="12" width="2" height="2"></rect><rect x="6" y="12" width="2" height="2"></rect><rect x="16" y="12" width="2" height="2"></rect><rect x="20" y="12" width="2" height="2"></rect><rect x="2" y="14" width="2" height="2"></rect><rect x="20" y="14" width="2" height="2"></rect><rect x="2" y="16" width="20" height="2"></rect></svg>