<svg xmlns="http://www.w3.org/2000/svg" viewBox="0 0 24 24" width="24" height="24" fill="currentColor"><rect x="2" y="2" width="14" height="2"></rect><rect x="2" y="4" width="2" height="2"></rect><rect x="14" y="4" width="4" height="2"></rect><rect x="2" y="6" width="2" height="2"></rect><rect x="8" y="6" width="2" height="2"></rect><rect x="16" y="6" width="4" height="2"></rect><rect x="2" y="8" width="2" height="2"></rect><rect x="14" y="8" width="2" height="2"></rect><rect x="18" y="8" width="4" height="2"></rect><rect x="2" y="10" width="2" height="2"></rect><rect x="16" y="10" width="2" height="2"></rect><rect x="20" y="10" width="2" height="2"></rect><rect x="2" y="12" width="2" height="2"></rect><rect x="18" y="12" width="4" height="2"></rect><rect x="2" y="14" width="2" height="2"></rect><rect x="16" y="14" width="4" height="2"></rect><rect x="2" y="16" width="14" height="2"></rect><rect x="18" y="16" width="2" height="2"></rect><rect x="12" y="18" width="6" height="2"></rect></svg>