<svg xmlns="http://www.w3.org/2000/svg" width="56" height="64" viewBox="0 0 56 64" fill="none"><rect x="8" y="0" width="8" height="8" fill="#15120F"></rect><rect x="16" y="0" width="8" height="8" fill="#15120F"></rect><rect x="24" y="0" width="8" height="8" fill="#FA5410"></rect><rect x="32" y="0" width="8" height="8" fill="#15120F"></rect><rect x="40" y="0" width="8" height="8" fill="#15120F"></rect><rect x="0" y="8" width="8" height="8" fill="#15120F"></rect><rect x="8" y="8" width="8" height="8" fill="#15120F"></rect><rect x="16" y="8" width="8" height="8" fill="#15120F"></rect><rect x="24" y="8" width="8" height="8" fill="#15120F"></rect><rect x="32" y="8" width="8" height="8" fill="#15120F"></rect><rect x="40" y="8" width="8" height="8" fill="#15120F"></rect><rect x="48" y="8" width="8" height="8" fill="#15120F"></rect><rect x="0" y="16" width="8" height="8" fill="#15120F"></rect><rect x="8" y="16" width="8" height="8" fill="#15120F"></rect><rect x="40" y="16" width="8" height="8" fill="#15120F"></rect><rect x="48" y="16" width="8" height="8" fill="#15120F"></rect><rect x="0" y="24" width="8" height="8" fill="#15120F"></rect><rect x="8" y="24" width="8" height="8" fill="#15120F"></rect><rect x="40" y="24" width="8" height="8" fill="#15120F"></rect><rect x="48" y="24" width="8" height="8" fill="#15120F"></rect><rect x="0" y="32" width="8" height="8" fill="#15120F"></rect><rect x="8" y="32" width="8" height="8" fill="#15120F"></rect><rect x="40" y="32" width="8" height="8" fill="#15120F"></rect><rect x="48" y="32" width="8" height="8" fill="#15120F"></rect><rect x="0" y="40" width="8" height="8" fill="#15120F"></rect><rect x="8" y="40" width="8" height="8" fill="#15120F"></rect><rect x="40" y="40" width="8" height="8" fill="#15120F"></rect><rect x="48" y="40" width="8" height="8" fill="#15120F"></rect><rect x="0" y="48" width="8" height="8" fill="#15120F"></rect><rect x="8" y="48" width="8" height="8" fill="#15120F"></rect><rect x="40" y="48" width="8" height="8" fill="#15120F"></rect><rect x="48" y="48" width="8" height="8" fill="#15120F"></rect><rect x="0" y="56" width="8" height="8" fill="#15120F"></rect><rect x="8" y="56" width="8" height="8" fill="#15120F"></rect><rect x="40" y="56" width="8" height="8" fill="#15120F"></rect><rect x="48" y="56" width="8" height="8" fill="#15120F"></rect></svg>